<svg width="167" height="99" viewBox="0 0 167 99" fill="none" xmlns="http://www.w3.org/2000/svg">
<g filter="url(#filter0_ddi_4_432)">
<path d="M158.669 47.5766C159.679 41.8498 155.855 36.3887 150.128 35.3789L119.02 29.8938C113.293 28.884 107.832 32.7079 106.822 38.4347L101.337 69.5425C100.328 75.2693 104.151 80.7304 109.878 81.7402L140.986 87.2254C146.713 88.2352 152.174 84.4113 153.184 78.6845L158.669 47.5766Z" fill="#24292F"/>
<path fill-rule="evenodd" clip-rule="evenodd" d="M133.493 41.4227C129.284 40.676 124.946 41.4501 121.258 43.6063C117.57 45.7625 114.772 49.1598 113.366 53.1895C111.961 57.2191 112.039 61.6177 113.587 65.597C115.135 69.5762 118.051 72.8761 121.814 74.9051C122.666 75.2233 123.09 74.7271 123.172 74.2603C123.255 73.7934 123.442 72.7295 123.703 71.253C118.584 71.4698 118.149 67.8333 118.149 67.8333C118.009 66.7054 117.473 65.6631 116.637 64.8914C115.23 63.5238 116.959 63.8287 116.959 63.8287C117.506 64.0066 118.005 64.3062 118.418 64.705C118.832 65.1037 119.149 65.5911 119.346 66.1302C119.51 66.6082 119.767 67.0493 120.102 67.4281C120.437 67.8069 120.843 68.116 121.298 68.3376C121.753 68.5593 122.247 68.6891 122.752 68.7197C123.257 68.7503 123.763 68.681 124.241 68.5158C124.467 67.6347 125.001 66.8634 125.746 66.3408C121.887 65.2014 118.022 62.9527 119.217 56.1781C119.499 54.4178 120.449 52.8337 121.87 51.754C121.606 50.1338 121.963 48.4745 122.869 47.1054C122.869 47.1054 124.443 46.8905 127.422 49.7777C130.467 49.4938 133.533 50.0345 136.298 51.3427C140.084 49.6484 141.479 50.387 141.479 50.387C141.869 51.9823 141.641 53.6655 140.839 55.0988C141.805 56.5993 142.156 58.4127 141.819 60.1635C140.621 66.9598 136.214 67.7164 132.195 67.4219C132.544 67.9214 132.781 68.4897 132.89 69.0884C132.999 69.6871 132.978 70.3021 132.828 70.8919C132.411 73.2586 132.074 75.1694 131.973 75.7448C131.871 76.3202 132.108 76.821 133.04 76.8173C137.259 76.1828 141.114 74.0726 143.918 70.8631C146.722 67.6536 148.291 63.5536 148.347 59.2942C148.403 55.0349 146.941 50.8932 144.223 47.608C141.505 44.3227 137.706 42.1076 133.505 41.3576L133.493 41.4227Z" fill="white"/>
</g>
<rect width="58.1671" height="58.1671" transform="translate(2 35.9964) rotate(-10)" fill="black" fill-opacity="0.01"/>
<g filter="url(#filter1_ddi_4_432)">
<path d="M7.45926 46.0782C6.58998 41.1483 9.88179 36.4471 14.8117 35.5778L48.7322 29.5967C53.6621 28.7275 58.3633 32.0193 59.2326 36.9492L65.2137 70.8696C66.0829 75.7996 62.7911 80.5008 57.8612 81.3701L23.9407 87.3511C19.0108 88.2204 14.3096 84.9286 13.4403 79.9987L7.45926 46.0782Z" fill="url(#paint0_linear_4_432)"/>
<path d="M14.8904 36.0241L48.8109 30.0431C53.4943 29.2172 57.9604 32.3445 58.7863 37.0279L64.7673 70.9483C65.5932 75.6318 62.4659 80.0979 57.7825 80.9237L23.8621 86.9048C19.1786 87.7306 14.7125 84.6034 13.8867 79.92L7.90558 45.9995C7.07976 41.3161 10.207 36.85 14.8904 36.0241Z" stroke="black" stroke-opacity="0.06" stroke-width="0.906414"/>
</g>
<g filter="url(#filter2_i_4_432)">
<rect x="11.1355" y="40.8282" width="43.5079" height="43.5079" rx="7.25131" transform="rotate(-10 11.1355 40.8282)" fill="black" fill-opacity="0.45"/>
</g>
<rect x="11.6605" y="41.1958" width="42.6015" height="42.6015" rx="6.7981" transform="rotate(-10 11.6605 41.1958)" stroke="#35414C" stroke-width="0.906414"/>
<path fill-rule="evenodd" clip-rule="evenodd" d="M36.179 57.581C36.0052 56.595 36.6635 55.6548 37.6495 55.4809L48.3613 53.5922C49.3472 53.4183 50.2875 54.0767 50.4613 55.0626C50.6352 56.0486 49.9768 56.9889 48.9908 57.1627L38.2791 59.0515C37.2931 59.2253 36.3529 58.567 36.179 57.581Z" fill="#F8F8F9"/>
<path fill-rule="evenodd" clip-rule="evenodd" d="M20.3455 44.6999C20.6675 43.7714 21.6374 43.3177 22.512 43.6865L31.745 47.5807C32.3012 47.8153 32.7091 48.3425 32.8197 48.9696C32.9303 49.5966 32.7272 50.2316 32.2848 50.6423L24.9405 57.4595C24.2449 58.1052 23.1783 58.0106 22.5581 57.2482C21.938 56.4858 21.9992 55.3443 22.6949 54.6986L27.9399 49.83L21.346 47.0489C20.4715 46.6801 20.0236 45.6284 20.3455 44.6999Z" fill="#F8F8F9"/>
<path opacity="0.3" d="M56.0241 76.1722L44.4198 78.2183L46.2197 75.1398L52.5494 74.0237L56.0241 76.1722Z" fill="black"/>
<g opacity="0.3" filter="url(#filter3_f_4_432)">
<path fill-rule="evenodd" clip-rule="evenodd" d="M25.8271 74.709C26.1615 74.0826 26.2965 73.3438 26.1636 72.5902C25.8481 70.8007 24.1416 69.6058 22.3521 69.9214C20.5626 70.2369 19.3678 71.9434 19.6833 73.7329C19.8161 74.4859 20.1952 75.1337 20.7231 75.6079C20.6311 74.2942 21.5447 73.0967 22.8703 72.8629C24.1963 72.6291 25.4647 73.4425 25.8271 74.709Z" fill="black"/>
</g>
<g filter="url(#filter4_dd_4_432)">
<path fill-rule="evenodd" clip-rule="evenodd" d="M26.0407 88.8241C30.6666 88.0085 34.2622 84.783 35.7643 80.6663L44.7787 79.0775L47.3606 75.4003L53.0892 74.3902L56.5826 76.7952C56.5826 76.7952 60.5782 75.1592 60.5 70.2391L54.014 65.6312L34.1878 68.9806C31.4377 65.1116 26.6192 62.951 21.6336 63.8301C14.7317 65.0471 10.1232 71.6288 11.3402 78.5307C12.5572 85.4326 19.1388 90.0411 26.0407 88.8241ZM23.8369 76.327C25.3159 76.0662 26.3034 74.6559 26.0426 73.1769C25.7818 71.6979 24.3715 70.7104 22.8925 70.9712C21.4135 71.2319 20.426 72.6423 20.6868 74.1213C20.9475 75.6003 22.3579 76.5878 23.8369 76.327Z" fill="url(#paint1_linear_4_432)"/>
</g>
<g filter="url(#filter5_i_4_432)">
<path d="M40.859 73.3243L60.0761 69.9358L56.9643 67.7233L40.3868 70.6463C39.6473 70.7767 39.1535 71.4819 39.2839 72.2214C39.4143 72.9609 40.1195 73.4547 40.859 73.3243Z" fill="#FFAA05"/>
</g>
<g filter="url(#filter6_f_4_432)">
<ellipse cx="23.8372" cy="76.3264" rx="9.97055" ry="9.97055" transform="rotate(-10 23.8372 76.3264)" stroke="#EB7100" stroke-width="0.453207"/>
</g>
<path opacity="0.3" d="M32.7636 74.7525C33.6329 79.6824 30.3411 84.3836 25.4112 85.2529C20.4812 86.1221 15.78 82.8303 14.9107 77.9004C14.0415 72.9705 17.3333 68.2693 22.2632 67.4C27.1931 66.5307 31.8943 69.8225 32.7636 74.7525Z" stroke="white" stroke-width="1.81283"/>
<path d="M33.4331 74.6344C34.3676 79.9341 30.8289 84.9879 25.5292 85.9223C20.2295 86.8568 15.1757 83.3181 14.2413 78.0185C13.3068 72.7188 16.8455 67.665 22.1452 66.7305C27.4448 65.796 32.4986 69.3347 33.4331 74.6344Z" stroke="#EB7100" stroke-width="0.453207"/>
<g clip-path="url(#clip0_4_432)">
<rect width="95.7241" height="95.7241" transform="translate(33.8742)" fill="black" fill-opacity="0.01"/>
<path fill-rule="evenodd" clip-rule="evenodd" d="M81.7364 85.8809C102.734 85.8809 119.755 68.8593 119.755 47.8619C119.755 26.8646 102.734 9.84313 81.7364 9.84313C60.7392 9.84313 43.7175 26.8646 43.7175 47.8619C43.7175 68.8593 60.7392 85.8809 81.7364 85.8809ZM77.8535 29.9138C76.6937 29.9138 75.7535 30.854 75.7535 32.0138V40.0497C75.7535 40.4098 76.0492 40.6991 76.3161 40.9602C76.3492 40.9926 76.3819 41.0245 76.4134 41.0561L77.6671 42.3097C78.0316 42.6742 78.0316 43.2652 77.6671 43.6297L76.4134 44.8833C76.3819 44.9149 76.3492 44.9469 76.3161 44.9793C76.0492 45.2403 75.7535 45.5296 75.7535 45.8898V63.7103C75.7535 64.8701 76.6937 65.8103 77.8535 65.8103H85.619C86.7788 65.8103 87.719 64.8701 87.719 63.7103V55.616C87.719 55.258 87.4259 54.9704 87.1618 54.7112C87.1314 54.6813 87.1013 54.6519 87.0722 54.6227L85.8185 53.369C85.454 53.0045 85.454 52.4136 85.8185 52.0491L87.0722 50.7954C87.1013 50.7663 87.1314 50.7368 87.1618 50.707C87.4259 50.4478 87.719 50.1602 87.719 49.8022V32.0138C87.719 30.854 86.7788 29.9138 85.619 29.9138H77.8535Z" fill="url(#paint2_linear_4_432)"/>
<mask id="mask0_4_432" style="mask-type:alpha" maskUnits="userSpaceOnUse" x="43" y="9" width="77" height="77">
<path fill-rule="evenodd" clip-rule="evenodd" d="M81.7364 85.8809C102.734 85.8809 119.755 68.8593 119.755 47.8619C119.755 26.8646 102.734 9.84314 81.7364 9.84314C60.7392 9.84314 43.7175 26.8646 43.7175 47.8619C43.7175 68.8593 60.7392 85.8809 81.7364 85.8809ZM77.8535 29.9138C76.6937 29.9138 75.7535 30.854 75.7535 32.0138V40.0497C75.7535 40.4099 76.0492 40.6991 76.3161 40.9602C76.3492 40.9926 76.3819 41.0245 76.4134 41.0561L77.6671 42.3098C78.0316 42.6742 78.0316 43.2652 77.6671 43.6297L76.4134 44.8833C76.3819 44.9149 76.3492 44.9469 76.3161 44.9792C76.0493 45.2403 75.7535 45.5296 75.7535 45.8898V63.7103C75.7535 64.8701 76.6937 65.8103 77.8535 65.8103H85.619C86.7788 65.8103 87.719 64.8701 87.719 63.7103V55.616C87.719 55.258 87.4259 54.9704 87.1618 54.7112C87.1314 54.6814 87.1013 54.6519 87.0722 54.6227L85.8185 53.369C85.454 53.0045 85.454 52.4136 85.8185 52.0491L87.0722 50.7954C87.1013 50.7663 87.1314 50.7368 87.1618 50.707C87.4259 50.4478 87.719 50.1602 87.719 49.8022V32.0138C87.719 30.854 86.7788 29.9138 85.619 29.9138H77.8535Z" fill="url(#paint3_linear_4_432)"/>
</mask>
<g mask="url(#mask0_4_432)">
<g filter="url(#filter7_ddi_4_432)">
<circle cx="81.7363" cy="47.862" r="25.4267" fill="url(#paint4_radial_4_432)"/>
<circle cx="81.7363" cy="47.862" r="25.4267" fill="url(#paint5_linear_4_432)"/>
</g>
<g filter="url(#filter8_dii_4_432)">
<ellipse cx="81.7366" cy="47.862" rx="12.751" ry="12.751" fill="black" fill-opacity="0.03"/>
</g>
</g>
<circle cx="81.7363" cy="47.862" r="41.8793" fill="black" fill-opacity="0.01" stroke="black" stroke-opacity="0.3" stroke-width="2.98333"/>
<g style="mix-blend-mode:multiply" filter="url(#filter9_dd_4_432)">
<circle cx="81.7363" cy="47.862" r="41.8793" fill="white"/>
</g>
<ellipse cx="81.737" cy="47.862" rx="34.4008" ry="34.4008" fill="black" fill-opacity="0.01" stroke="black" stroke-opacity="0.2" stroke-width="2.98333"/>
<g filter="url(#filter10_iii_4_432)">
<ellipse cx="81.737" cy="47.862" rx="34.4008" ry="34.4008" fill="black" fill-opacity="0.01"/>
</g>
<mask id="mask1_4_432" style="mask-type:alpha" maskUnits="userSpaceOnUse" x="39" y="5" width="85" height="85">
<path fill-rule="evenodd" clip-rule="evenodd" d="M81.7363 89.7413C104.866 89.7413 123.616 70.9913 123.616 47.862C123.616 24.7327 104.866 5.98275 81.7363 5.98275C58.607 5.98275 39.857 24.7327 39.857 47.862C39.857 70.9913 58.607 89.7413 81.7363 89.7413ZM81.7363 82.2629C100.735 82.2629 116.137 66.8611 116.137 47.862C116.137 28.863 100.735 13.4612 81.7363 13.4612C62.7372 13.4612 47.3354 28.863 47.3354 47.862C47.3354 66.8611 62.7372 82.2629 81.7363 82.2629Z" fill="white"/>
</mask>
<g mask="url(#mask1_4_432)">
<ellipse cx="81.7365" cy="47.862" rx="42.1132" ry="42.1132" fill="url(#paint6_radial_4_432)"/>
<g opacity="0.7">
<g filter="url(#filter11_iiiiiii_4_432)">
<ellipse cx="81.7365" cy="47.862" rx="42.1132" ry="42.1132" fill="black" fill-opacity="0.01"/>
</g>
<g filter="url(#filter12_i_4_432)">
<path fill-rule="evenodd" clip-rule="evenodd" d="M81.7365 89.9753C104.995 89.9753 123.85 71.1205 123.85 47.862C123.85 24.6035 104.995 5.74879 81.7365 5.74879C58.478 5.74879 39.6233 24.6035 39.6233 47.862C39.6233 71.1205 58.478 89.9753 81.7365 89.9753ZM81.7364 81.3187C100.214 81.3187 115.193 66.3396 115.193 47.862C115.193 29.3844 100.214 14.4054 81.7364 14.4054C63.2588 14.4054 48.2797 29.3844 48.2797 47.862C48.2797 66.3396 63.2588 81.3187 81.7364 81.3187Z" fill="black" fill-opacity="0.01"/>
</g>
<g filter="url(#filter13_dd_4_432)">
<circle cx="81.7364" cy="47.862" r="33.4566" fill="black" fill-opacity="0.01"/>
</g>
<g filter="url(#filter14_f_4_432)">
<path fill-rule="evenodd" clip-rule="evenodd" d="M102.007 77.7499C111.792 71.2029 118.234 60.0509 118.234 47.3941C118.234 27.2367 101.893 10.896 81.7361 10.896C61.5788 10.896 45.238 27.2367 45.238 47.3941C45.238 56.7734 48.7759 65.3264 54.59 71.7913C49.4828 65.696 46.4079 57.84 46.4079 49.2658C46.4079 29.8837 62.1202 14.1714 81.5023 14.1714C100.884 14.1714 116.597 29.8837 116.597 49.2658C116.597 60.9932 110.844 71.3771 102.007 77.7499Z" fill="black" fill-opacity="0.07"/>
</g>
</g>
</g>
<mask id="mask2_4_432" style="mask-type:alpha" maskUnits="userSpaceOnUse" x="75" y="29" width="13" height="37">
<path fill-rule="evenodd" clip-rule="evenodd" d="M75.7535 32.0138C75.7535 30.854 76.6937 29.9138 77.8535 29.9138H85.619C86.7788 29.9138 87.719 30.854 87.719 32.0138V49.8022C87.719 50.2014 87.3545 50.5131 87.0722 50.7954V50.7954L85.8185 52.0491C85.454 52.4136 85.454 53.0045 85.8185 53.369L87.0722 54.6227V54.6227C87.3545 54.905 87.719 55.2167 87.719 55.616V63.7103C87.719 64.8701 86.7788 65.8103 85.619 65.8103H77.8535C76.6937 65.8103 75.7535 64.8701 75.7535 63.7103V45.8898C75.7535 45.4849 76.1272 45.1696 76.4134 44.8833V44.8833L77.6671 43.6297C78.0316 43.2652 78.0316 42.6742 77.6671 42.3098L76.4134 41.0561V41.0561C76.1272 40.7698 75.7535 40.4545 75.7535 40.0497V32.0138Z" fill="black"/>
</mask>
<g mask="url(#mask2_4_432)">
<path fill-rule="evenodd" clip-rule="evenodd" d="M75.7535 32.0138C75.7535 30.854 76.6937 29.9138 77.8535 29.9138H85.619C86.7788 29.9138 87.719 30.854 87.719 32.0138V49.8022C87.719 50.2014 87.3545 50.5131 87.0722 50.7954V50.7954L85.8185 52.0491C85.454 52.4136 85.454 53.0045 85.8185 53.369L87.0722 54.6227V54.6227C87.3545 54.905 87.719 55.2167 87.719 55.616V63.7103C87.719 64.8701 86.7788 65.8103 85.619 65.8103H77.8535C76.6937 65.8103 75.7535 64.8701 75.7535 63.7103V45.8898C75.7535 45.4849 76.1272 45.1696 76.4134 44.8833V44.8833L77.6671 43.6297C78.0316 43.2652 78.0316 42.6742 77.6671 42.3098L76.4134 41.0561V41.0561C76.1272 40.7698 75.7535 40.4545 75.7535 40.0497V32.0138Z" fill="#808080" fill-opacity="0.7"/>
<g opacity="0.8" filter="url(#filter15_i_4_432)">
<path fill-rule="evenodd" clip-rule="evenodd" d="M75.7535 32.0138C75.7535 30.854 76.6937 29.9138 77.8535 29.9138H85.619C86.7788 29.9138 87.719 30.854 87.719 32.0138V49.8022C87.719 50.2014 87.3545 50.5131 87.0722 50.7954V50.7954L85.8185 52.0491C85.454 52.4136 85.454 53.0045 85.8185 53.369L87.0722 54.6227V54.6227C87.3545 54.905 87.719 55.2167 87.719 55.616V63.7103C87.719 64.8701 86.7788 65.8103 85.619 65.8103H77.8535C76.6937 65.8103 75.7535 64.8701 75.7535 63.7103V45.8898C75.7535 45.4849 76.1272 45.1696 76.4134 44.8833V44.8833L77.6671 43.6297C78.0316 43.2652 78.0316 42.6742 77.6671 42.3098L76.4134 41.0561V41.0561C76.1272 40.7698 75.7535 40.4545 75.7535 40.0497V32.0138Z" fill="black" fill-opacity="0.01"/>
</g>
<path d="M85.8185 52.0491L86.1485 52.3791L86.1485 52.3791L85.8185 52.0491ZM85.8185 53.369L85.4885 53.699L85.4885 53.699L85.8185 53.369ZM77.6671 43.6297L77.9971 43.9597L77.9971 43.9597L77.6671 43.6297ZM77.6671 42.3098L77.9971 41.9798L77.9971 41.9798L77.6671 42.3098ZM77.8535 29.4471C76.436 29.4471 75.2869 30.5962 75.2869 32.0138H76.2202C76.2202 31.1117 76.9515 30.3804 77.8535 30.3804V29.4471ZM85.619 29.4471H77.8535V30.3804H85.619V29.4471ZM88.1857 32.0138C88.1857 30.5962 87.0366 29.4471 85.619 29.4471V30.3804C86.5211 30.3804 87.2524 31.1117 87.2524 32.0138H88.1857ZM88.1857 49.8022V32.0138H87.2524V49.8022H88.1857ZM86.1485 52.3791L87.4022 51.1254L86.7422 50.4655L85.4885 51.7191L86.1485 52.3791ZM86.1485 53.0391C85.9662 52.8568 85.9662 52.5613 86.1485 52.3791L85.4885 51.7191C84.9418 52.2659 84.9418 53.1523 85.4885 53.699L86.1485 53.0391ZM87.4022 54.2927L86.1485 53.0391L85.4885 53.699L86.7422 54.9527L87.4022 54.2927ZM88.1857 63.7103V55.616H87.2524V63.7103H88.1857ZM85.619 66.277C87.0366 66.277 88.1857 65.1278 88.1857 63.7103H87.2524C87.2524 64.6124 86.5211 65.3436 85.619 65.3436V66.277ZM77.8535 66.277H85.619V65.3436H77.8535V66.277ZM75.2869 63.7103C75.2869 65.1278 76.436 66.277 77.8535 66.277V65.3436C76.9515 65.3436 76.2202 64.6124 76.2202 63.7103H75.2869ZM75.2869 45.8898V63.7103H76.2202V45.8898H75.2869ZM77.3371 43.2997L76.0835 44.5534L76.7434 45.2133L77.9971 43.9597L77.3371 43.2997ZM77.3371 42.6397C77.5194 42.822 77.5194 43.1175 77.3371 43.2997L77.9971 43.9597C78.5438 43.4129 78.5438 42.5265 77.9971 41.9798L77.3371 42.6397ZM76.0835 41.3861L77.3371 42.6397L77.9971 41.9798L76.7434 40.7261L76.0835 41.3861ZM75.2869 32.0138V40.0497H76.2202V32.0138H75.2869ZM76.7434 40.7261C76.5783 40.561 76.4497 40.4454 76.3437 40.3099C76.2436 40.1819 76.2202 40.1025 76.2202 40.0497H75.2869C75.2869 40.4017 75.4502 40.6824 75.6085 40.8848C75.761 41.0798 75.9623 41.2649 76.0835 41.3861L76.7434 40.7261ZM76.2202 45.8898C76.2202 45.8369 76.2436 45.7576 76.3437 45.6296C76.4497 45.4941 76.5783 45.3784 76.7434 45.2133L76.0835 44.5534C75.9623 44.6745 75.761 44.8597 75.6085 45.0546C75.4502 45.257 75.2869 45.5378 75.2869 45.8898H76.2202ZM86.7422 54.9527C86.9038 55.1143 87.03 55.229 87.1326 55.3614C87.2298 55.4867 87.2524 55.5644 87.2524 55.616H88.1857C88.1857 55.2683 88.026 54.9905 87.8703 54.7896C87.7201 54.5957 87.5229 54.4134 87.4022 54.2927L86.7422 54.9527ZM87.2524 49.8022C87.2524 49.8538 87.2298 49.9315 87.1326 50.0568C87.03 50.1892 86.9038 50.3039 86.7422 50.4655L87.4021 51.1254C87.5229 51.0047 87.7201 50.8224 87.8703 50.6285C88.026 50.4276 88.1857 50.1498 88.1857 49.8022H87.2524Z" fill="black" fill-opacity="0.5"/>
</g>
</g>
<defs>
<filter id="filter0_ddi_4_432" x="85.1339" y="15.677" width="89.7383" height="89.7384" filterUnits="userSpaceOnUse" color-interpolation-filters="sRGB">
<feFlood flood-opacity="0" result="BackgroundImageFix"/>
<feColorMatrix in="SourceAlpha" type="matrix" values="0 0 0 0 0 0 0 0 0 0 0 0 0 0 0 0 0 0 127 0" result="hardAlpha"/>
<feOffset dy="1.98665"/>
<feGaussianBlur stdDeviation="3.9733"/>
<feComposite in2="hardAlpha" operator="out"/>
<feColorMatrix type="matrix" values="0 0 0 0 0 0 0 0 0 0 0 0 0 0 0 0 0 0 0.3 0"/>
<feBlend mode="normal" in2="BackgroundImageFix" result="effect1_dropShadow_4_432"/>
<feColorMatrix in="SourceAlpha" type="matrix" values="0 0 0 0 0 0 0 0 0 0 0 0 0 0 0 0 0 0 127 0" result="hardAlpha"/>
<feMorphology radius="0.993326" operator="dilate" in="SourceAlpha" result="effect2_dropShadow_4_432"/>
<feOffset/>
<feComposite in2="hardAlpha" operator="out"/>
<feColorMatrix type="matrix" values="0 0 0 0 0 0 0 0 0 0 0 0 0 0 0 0 0 0 0.1 0"/>
<feBlend mode="normal" in2="effect1_dropShadow_4_432" result="effect2_dropShadow_4_432"/>
<feBlend mode="normal" in="SourceGraphic" in2="effect2_dropShadow_4_432" result="shape"/>
<feColorMatrix in="SourceAlpha" type="matrix" values="0 0 0 0 0 0 0 0 0 0 0 0 0 0 0 0 0 0 127 0" result="hardAlpha"/>
<feMorphology radius="0.993326" operator="erode" in="SourceAlpha" result="effect3_innerShadow_4_432"/>
<feOffset/>
<feComposite in2="hardAlpha" operator="arithmetic" k2="-1" k3="1"/>
<feColorMatrix type="matrix" values="0 0 0 0 1 0 0 0 0 1 0 0 0 0 1 0 0 0 0.05 0"/>
<feBlend mode="normal" in2="shape" result="effect3_innerShadow_4_432"/>
</filter>
<filter id="filter1_ddi_4_432" x="0.0687265" y="24.019" width="72.5355" height="72.5355" filterUnits="userSpaceOnUse" color-interpolation-filters="sRGB">
<feFlood flood-opacity="0" result="BackgroundImageFix"/>
<feColorMatrix in="SourceAlpha" type="matrix" values="0 0 0 0 0 0 0 0 0 0 0 0 0 0 0 0 0 0 127 0" result="hardAlpha"/>
<feOffset dy="1.81283"/>
<feGaussianBlur stdDeviation="3.62566"/>
<feComposite in2="hardAlpha" operator="out"/>
<feColorMatrix type="matrix" values="0 0 0 0 0 0 0 0 0 0 0 0 0 0 0 0 0 0 0.3 0"/>
<feBlend mode="normal" in2="BackgroundImageFix" result="effect1_dropShadow_4_432"/>
<feColorMatrix in="SourceAlpha" type="matrix" values="0 0 0 0 0 0 0 0 0 0 0 0 0 0 0 0 0 0 127 0" result="hardAlpha"/>
<feMorphology radius="0.906414" operator="dilate" in="SourceAlpha" result="effect2_dropShadow_4_432"/>
<feOffset/>
<feComposite in2="hardAlpha" operator="out"/>
<feColorMatrix type="matrix" values="0 0 0 0 0 0 0 0 0 0 0 0 0 0 0 0 0 0 0.1 0"/>
<feBlend mode="normal" in2="effect1_dropShadow_4_432" result="effect2_dropShadow_4_432"/>
<feBlend mode="normal" in="SourceGraphic" in2="effect2_dropShadow_4_432" result="shape"/>
<feColorMatrix in="SourceAlpha" type="matrix" values="0 0 0 0 0 0 0 0 0 0 0 0 0 0 0 0 0 0 127 0" result="hardAlpha"/>
<feMorphology radius="0.906414" operator="erode" in="SourceAlpha" result="effect3_innerShadow_4_432"/>
<feOffset/>
<feComposite in2="hardAlpha" operator="arithmetic" k2="-1" k3="1"/>
<feColorMatrix type="matrix" values="0 0 0 0 1 0 0 0 0 1 0 0 0 0 1 0 0 0 0.05 0"/>
<feBlend mode="normal" in2="shape" result="effect3_innerShadow_4_432"/>
</filter>
<filter id="filter2_i_4_432" x="12.2833" y="34.4209" width="48.1063" height="49.0128" filterUnits="userSpaceOnUse" color-interpolation-filters="sRGB">
<feFlood flood-opacity="0" result="BackgroundImageFix"/>
<feBlend mode="normal" in="SourceGraphic" in2="BackgroundImageFix" result="shape"/>
<feColorMatrix in="SourceAlpha" type="matrix" values="0 0 0 0 0 0 0 0 0 0 0 0 0 0 0 0 0 0 127 0" result="hardAlpha"/>
<feOffset dy="0.906414"/>
<feGaussianBlur stdDeviation="1.81283"/>
<feComposite in2="hardAlpha" operator="arithmetic" k2="-1" k3="1"/>
<feColorMatrix type="matrix" values="0 0 0 0 0 0 0 0 0 0 0 0 0 0 0 0 0 0 0.2 0"/>
<feBlend mode="normal" in2="shape" result="effect1_innerShadow_4_432"/>
</filter>
<filter id="filter3_f_4_432" x="18.7263" y="68.9644" width="8.39421" height="7.54985" filterUnits="userSpaceOnUse" color-interpolation-filters="sRGB">
<feFlood flood-opacity="0" result="BackgroundImageFix"/>
<feBlend mode="normal" in="SourceGraphic" in2="BackgroundImageFix" result="shape"/>
<feGaussianBlur stdDeviation="0.453207" result="effect1_foregroundBlur_4_432"/>
</filter>
<filter id="filter4_dd_4_432" x="3.89394" y="58.1967" width="63.8585" height="39.8865" filterUnits="userSpaceOnUse" color-interpolation-filters="sRGB">
<feFlood flood-opacity="0" result="BackgroundImageFix"/>
<feColorMatrix in="SourceAlpha" type="matrix" values="0 0 0 0 0 0 0 0 0 0 0 0 0 0 0 0 0 0 127 0" result="hardAlpha"/>
<feOffset dy="1.81283"/>
<feGaussianBlur stdDeviation="3.62566"/>
<feComposite in2="hardAlpha" operator="out"/>
<feColorMatrix type="matrix" values="0 0 0 0 0 0 0 0 0 0 0 0 0 0 0 0 0 0 0.06 0"/>
<feBlend mode="normal" in2="BackgroundImageFix" result="effect1_dropShadow_4_432"/>
<feColorMatrix in="SourceAlpha" type="matrix" values="0 0 0 0 0 0 0 0 0 0 0 0 0 0 0 0 0 0 127 0" result="hardAlpha"/>
<feMorphology radius="0.906414" operator="dilate" in="SourceAlpha" result="effect2_dropShadow_4_432"/>
<feOffset/>
<feComposite in2="hardAlpha" operator="out"/>
<feColorMatrix type="matrix" values="0 0 0 0 0 0 0 0 0 0 0 0 0 0 0 0 0 0 0.06 0"/>
<feBlend mode="normal" in2="effect1_dropShadow_4_432" result="effect2_dropShadow_4_432"/>
<feBlend mode="normal" in="SourceGraphic" in2="effect2_dropShadow_4_432" result="shape"/>
</filter>
<filter id="filter5_i_4_432" x="39.263" y="67.7233" width="20.8131" height="6.52829" filterUnits="userSpaceOnUse" color-interpolation-filters="sRGB">
<feFlood flood-opacity="0" result="BackgroundImageFix"/>
<feBlend mode="normal" in="SourceGraphic" in2="BackgroundImageFix" result="shape"/>
<feColorMatrix in="SourceAlpha" type="matrix" values="0 0 0 0 0 0 0 0 0 0 0 0 0 0 0 0 0 0 127 0" result="hardAlpha"/>
<feOffset dy="0.906414"/>
<feGaussianBlur stdDeviation="0.906414"/>
<feComposite in2="hardAlpha" operator="arithmetic" k2="-1" k3="1"/>
<feColorMatrix type="matrix" values="0 0 0 0 0.921569 0 0 0 0 0.443137 0 0 0 0 0 0 0 0 0.7 0"/>
<feBlend mode="normal" in2="shape" result="effect1_innerShadow_4_432"/>
</filter>
<filter id="filter6_f_4_432" x="11.8255" y="64.3147" width="24.0234" height="24.0234" filterUnits="userSpaceOnUse" color-interpolation-filters="sRGB">
<feFlood flood-opacity="0" result="BackgroundImageFix"/>
<feBlend mode="normal" in="SourceGraphic" in2="BackgroundImageFix" result="shape"/>
<feGaussianBlur stdDeviation="0.906414" result="effect1_foregroundBlur_4_432"/>
</filter>
<filter id="filter7_ddi_4_432" x="54.0721" y="20.9437" width="55.3284" height="56.0742" filterUnits="userSpaceOnUse" color-interpolation-filters="sRGB">
<feFlood flood-opacity="0" result="BackgroundImageFix"/>
<feColorMatrix in="SourceAlpha" type="matrix" values="0 0 0 0 0 0 0 0 0 0 0 0 0 0 0 0 0 0 127 0" result="hardAlpha"/>
<feOffset dy="1.49166"/>
<feGaussianBlur stdDeviation="1.11875"/>
<feColorMatrix type="matrix" values="0 0 0 0 0 0 0 0 0 0 0 0 0 0 0 0 0 0 0.1 0"/>
<feBlend mode="normal" in2="BackgroundImageFix" result="effect1_dropShadow_4_432"/>
<feColorMatrix in="SourceAlpha" type="matrix" values="0 0 0 0 0 0 0 0 0 0 0 0 0 0 0 0 0 0 127 0" result="hardAlpha"/>
<feMorphology radius="1.49166" operator="dilate" in="SourceAlpha" result="effect2_dropShadow_4_432"/>
<feOffset/>
<feColorMatrix type="matrix" values="0 0 0 0 0 0 0 0 0 0 0 0 0 0 0 0 0 0 0.1 0"/>
<feBlend mode="normal" in2="effect1_dropShadow_4_432" result="effect2_dropShadow_4_432"/>
<feBlend mode="normal" in="SourceGraphic" in2="effect2_dropShadow_4_432" result="shape"/>
<feColorMatrix in="SourceAlpha" type="matrix" values="0 0 0 0 0 0 0 0 0 0 0 0 0 0 0 0 0 0 127 0" result="hardAlpha"/>
<feOffset dy="0.933331"/>
<feGaussianBlur stdDeviation="0.466665"/>
<feComposite in2="hardAlpha" operator="arithmetic" k2="-1" k3="1"/>
<feColorMatrix type="matrix" values="0 0 0 0 1 0 0 0 0 1 0 0 0 0 1 0 0 0 0.65 0"/>
<feBlend mode="normal" in2="shape" result="effect3_innerShadow_4_432"/>
</filter>
<filter id="filter8_dii_4_432" x="68.519" y="34.8777" width="26.4352" height="29.4686" filterUnits="userSpaceOnUse" color-interpolation-filters="sRGB">
<feFlood flood-opacity="0" result="BackgroundImageFix"/>
<feColorMatrix in="SourceAlpha" type="matrix" values="0 0 0 0 0 0 0 0 0 0 0 0 0 0 0 0 0 0 127 0" result="hardAlpha"/>
<feMorphology radius="0.233333" operator="dilate" in="SourceAlpha" result="effect1_dropShadow_4_432"/>
<feOffset dy="0.233333"/>
<feGaussianBlur stdDeviation="0.116666"/>
<feColorMatrix type="matrix" values="0 0 0 0 1 0 0 0 0 1 0 0 0 0 1 0 0 0 0.34902 0"/>
<feBlend mode="normal" in2="BackgroundImageFix" result="effect1_dropShadow_4_432"/>
<feBlend mode="normal" in="SourceGraphic" in2="effect1_dropShadow_4_432" result="shape"/>
<feColorMatrix in="SourceAlpha" type="matrix" values="0 0 0 0 0 0 0 0 0 0 0 0 0 0 0 0 0 0 127 0" result="hardAlpha"/>
<feOffset dy="3.73332"/>
<feGaussianBlur stdDeviation="1.86666"/>
<feComposite in2="hardAlpha" operator="arithmetic" k2="-1" k3="1"/>
<feColorMatrix type="matrix" values="0 0 0 0 0 0 0 0 0 0 0 0 0 0 0 0 0 0 0.07 0"/>
<feBlend mode="normal" in2="shape" result="effect2_innerShadow_4_432"/>
<feColorMatrix in="SourceAlpha" type="matrix" values="0 0 0 0 0 0 0 0 0 0 0 0 0 0 0 0 0 0 127 0" result="hardAlpha"/>
<feOffset dy="0.466665"/>
<feGaussianBlur stdDeviation="0.699998"/>
<feComposite in2="hardAlpha" operator="arithmetic" k2="-1" k3="1"/>
<feColorMatrix type="matrix" values="0 0 0 0 0 0 0 0 0 0 0 0 0 0 0 0 0 0 0.07 0"/>
<feBlend mode="normal" in2="effect2_innerShadow_4_432" result="effect3_innerShadow_4_432"/>
</filter>
<filter id="filter9_dd_4_432" x="36.8737" y="3.74526" width="89.7252" height="89.7252" filterUnits="userSpaceOnUse" color-interpolation-filters="sRGB">
<feFlood flood-opacity="0" result="BackgroundImageFix"/>
<feColorMatrix in="SourceAlpha" type="matrix" values="0 0 0 0 0 0 0 0 0 0 0 0 0 0 0 0 0 0 127 0" result="hardAlpha"/>
<feOffset dy="0.745831"/>
<feGaussianBlur stdDeviation="1.49166"/>
<feColorMatrix type="matrix" values="0 0 0 0 0 0 0 0 0 0 0 0 0 0 0 0 0 0 0.2 0"/>
<feBlend mode="normal" in2="BackgroundImageFix" result="effect1_dropShadow_4_432"/>
<feColorMatrix in="SourceAlpha" type="matrix" values="0 0 0 0 0 0 0 0 0 0 0 0 0 0 0 0 0 0 127 0" result="hardAlpha"/>
<feOffset dy="0.372916"/>
<feColorMatrix type="matrix" values="0 0 0 0 0 0 0 0 0 0 0 0 0 0 0 0 0 0 0.25 0"/>
<feBlend mode="normal" in2="effect1_dropShadow_4_432" result="effect2_dropShadow_4_432"/>
<feBlend mode="normal" in="SourceGraphic" in2="effect2_dropShadow_4_432" result="shape"/>
</filter>
<filter id="filter10_iii_4_432" x="47.3362" y="13.4612" width="68.8017" height="72.535" filterUnits="userSpaceOnUse" color-interpolation-filters="sRGB">
<feFlood flood-opacity="0" result="BackgroundImageFix"/>
<feBlend mode="normal" in="SourceGraphic" in2="BackgroundImageFix" result="shape"/>
<feColorMatrix in="SourceAlpha" type="matrix" values="0 0 0 0 0 0 0 0 0 0 0 0 0 0 0 0 0 0 127 0" result="hardAlpha"/>
<feOffset dy="3.73332"/>
<feGaussianBlur stdDeviation="4.66665"/>
<feComposite in2="hardAlpha" operator="arithmetic" k2="-1" k3="1"/>
<feColorMatrix type="matrix" values="0 0 0 0 0 0 0 0 0 0 0 0 0 0 0 0 0 0 0.3 0"/>
<feBlend mode="normal" in2="shape" result="effect1_innerShadow_4_432"/>
<feColorMatrix in="SourceAlpha" type="matrix" values="0 0 0 0 0 0 0 0 0 0 0 0 0 0 0 0 0 0 127 0" result="hardAlpha"/>
<feOffset dy="0.933331"/>
<feGaussianBlur stdDeviation="0.933331"/>
<feComposite in2="hardAlpha" operator="arithmetic" k2="-1" k3="1"/>
<feColorMatrix type="matrix" values="0 0 0 0 0 0 0 0 0 0 0 0 0 0 0 0 0 0 0.2 0"/>
<feBlend mode="normal" in2="effect1_innerShadow_4_432" result="effect2_innerShadow_4_432"/>
<feColorMatrix in="SourceAlpha" type="matrix" values="0 0 0 0 0 0 0 0 0 0 0 0 0 0 0 0 0 0 127 0" result="hardAlpha"/>
<feOffset dy="0.933331"/>
<feComposite in2="hardAlpha" operator="arithmetic" k2="-1" k3="1"/>
<feColorMatrix type="matrix" values="0 0 0 0 0 0 0 0 0 0 0 0 0 0 0 0 0 0 0.25 0"/>
<feBlend mode="normal" in2="effect2_innerShadow_4_432" result="effect3_innerShadow_4_432"/>
</filter>
<filter id="filter11_iiiiiii_4_432" x="39.6233" y="5.74879" width="84.2265" height="86.3265" filterUnits="userSpaceOnUse" color-interpolation-filters="sRGB">
<feFlood flood-opacity="0" result="BackgroundImageFix"/>
<feBlend mode="normal" in="SourceGraphic" in2="BackgroundImageFix" result="shape"/>
<feColorMatrix in="SourceAlpha" type="matrix" values="0 0 0 0 0 0 0 0 0 0 0 0 0 0 0 0 0 0 127 0" result="hardAlpha"/>
<feMorphology radius="5.36665" operator="erode" in="SourceAlpha" result="effect1_innerShadow_4_432"/>
<feOffset/>
<feComposite in2="hardAlpha" operator="arithmetic" k2="-1" k3="1"/>
<feColorMatrix type="matrix" values="0 0 0 0 0 0 0 0 0 0 0 0 0 0 0 0 0 0 0.1 0"/>
<feBlend mode="normal" in2="shape" result="effect1_innerShadow_4_432"/>
<feColorMatrix in="SourceAlpha" type="matrix" values="0 0 0 0 0 0 0 0 0 0 0 0 0 0 0 0 0 0 127 0" result="hardAlpha"/>
<feMorphology radius="4.89999" operator="erode" in="SourceAlpha" result="effect2_innerShadow_4_432"/>
<feOffset/>
<feComposite in2="hardAlpha" operator="arithmetic" k2="-1" k3="1"/>
<feColorMatrix type="matrix" values="0 0 0 0 1 0 0 0 0 1 0 0 0 0 1 0 0 0 1 0"/>
<feBlend mode="normal" in2="effect1_innerShadow_4_432" result="effect2_innerShadow_4_432"/>
<feColorMatrix in="SourceAlpha" type="matrix" values="0 0 0 0 0 0 0 0 0 0 0 0 0 0 0 0 0 0 127 0" result="hardAlpha"/>
<feMorphology radius="3.03332" operator="erode" in="SourceAlpha" result="effect3_innerShadow_4_432"/>
<feOffset/>
<feComposite in2="hardAlpha" operator="arithmetic" k2="-1" k3="1"/>
<feColorMatrix type="matrix" values="0 0 0 0 0 0 0 0 0 0 0 0 0 0 0 0 0 0 0.07 0"/>
<feBlend mode="normal" in2="effect2_innerShadow_4_432" result="effect3_innerShadow_4_432"/>
<feColorMatrix in="SourceAlpha" type="matrix" values="0 0 0 0 0 0 0 0 0 0 0 0 0 0 0 0 0 0 127 0" result="hardAlpha"/>
<feOffset dy="-2.09999"/>
<feComposite in2="hardAlpha" operator="arithmetic" k2="-1" k3="1"/>
<feColorMatrix type="matrix" values="0 0 0 0 0 0 0 0 0 0 0 0 0 0 0 0 0 0 0.1 0"/>
<feBlend mode="normal" in2="effect3_innerShadow_4_432" result="effect4_innerShadow_4_432"/>
<feColorMatrix in="SourceAlpha" type="matrix" values="0 0 0 0 0 0 0 0 0 0 0 0 0 0 0 0 0 0 127 0" result="hardAlpha"/>
<feOffset dy="-1.63333"/>
<feComposite in2="hardAlpha" operator="arithmetic" k2="-1" k3="1"/>
<feColorMatrix type="matrix" values="0 0 0 0 1 0 0 0 0 1 0 0 0 0 1 0 0 0 0.6 0"/>
<feBlend mode="normal" in2="effect4_innerShadow_4_432" result="effect5_innerShadow_4_432"/>
<feColorMatrix in="SourceAlpha" type="matrix" values="0 0 0 0 0 0 0 0 0 0 0 0 0 0 0 0 0 0 127 0" result="hardAlpha"/>
<feOffset dy="2.09999"/>
<feGaussianBlur stdDeviation="1.86666"/>
<feComposite in2="hardAlpha" operator="arithmetic" k2="-1" k3="1"/>
<feColorMatrix type="matrix" values="0 0 0 0 0.0196078 0 0 0 0 0.447059 0 0 0 0 0.92549 0 0 0 0.6 0"/>
<feBlend mode="normal" in2="effect5_innerShadow_4_432" result="effect6_innerShadow_4_432"/>
<feColorMatrix in="SourceAlpha" type="matrix" values="0 0 0 0 0 0 0 0 0 0 0 0 0 0 0 0 0 0 127 0" result="hardAlpha"/>
<feOffset dy="3.49999"/>
<feGaussianBlur stdDeviation="0.933331"/>
<feComposite in2="hardAlpha" operator="arithmetic" k2="-1" k3="1"/>
<feColorMatrix type="matrix" values="0 0 0 0 1 0 0 0 0 1 0 0 0 0 1 0 0 0 1 0"/>
<feBlend mode="normal" in2="effect6_innerShadow_4_432" result="effect7_innerShadow_4_432"/>
</filter>
<filter id="filter12_i_4_432" x="39.6233" y="4.11546" width="84.2265" height="85.8598" filterUnits="userSpaceOnUse" color-interpolation-filters="sRGB">
<feFlood flood-opacity="0" result="BackgroundImageFix"/>
<feBlend mode="normal" in="SourceGraphic" in2="BackgroundImageFix" result="shape"/>
<feColorMatrix in="SourceAlpha" type="matrix" values="0 0 0 0 0 0 0 0 0 0 0 0 0 0 0 0 0 0 127 0" result="hardAlpha"/>
<feOffset dy="-1.63333"/>
<feGaussianBlur stdDeviation="1.86666"/>
<feComposite in2="hardAlpha" operator="arithmetic" k2="-1" k3="1"/>
<feColorMatrix type="matrix" values="0 0 0 0 0 0 0 0 0 0 0 0 0 0 0 0 0 0 0.2 0"/>
<feBlend mode="normal" in2="shape" result="effect1_innerShadow_4_432"/>
</filter>
<filter id="filter13_dd_4_432" x="47.5797" y="13.7054" width="68.3133" height="68.5466" filterUnits="userSpaceOnUse" color-interpolation-filters="sRGB">
<feFlood flood-opacity="0" result="BackgroundImageFix"/>
<feColorMatrix in="SourceAlpha" type="matrix" values="0 0 0 0 0 0 0 0 0 0 0 0 0 0 0 0 0 0 127 0" result="hardAlpha"/>
<feMorphology radius="0.699998" operator="dilate" in="SourceAlpha" result="effect1_dropShadow_4_432"/>
<feOffset/>
<feColorMatrix type="matrix" values="0 0 0 0 1 0 0 0 0 1 0 0 0 0 1 0 0 0 0.2 0"/>
<feBlend mode="normal" in2="BackgroundImageFix" result="effect1_dropShadow_4_432"/>
<feColorMatrix in="SourceAlpha" type="matrix" values="0 0 0 0 0 0 0 0 0 0 0 0 0 0 0 0 0 0 127 0" result="hardAlpha"/>
<feOffset dy="0.466665"/>
<feGaussianBlur stdDeviation="0.233333"/>
<feColorMatrix type="matrix" values="0 0 0 0 1 0 0 0 0 1 0 0 0 0 1 0 0 0 0.45 0"/>
<feBlend mode="normal" in2="effect1_dropShadow_4_432" result="effect2_dropShadow_4_432"/>
<feBlend mode="normal" in="SourceGraphic" in2="effect2_dropShadow_4_432" result="shape"/>
</filter>
<filter id="filter14_f_4_432" x="44.7713" y="10.4293" width="73.9296" height="67.7873" filterUnits="userSpaceOnUse" color-interpolation-filters="sRGB">
<feFlood flood-opacity="0" result="BackgroundImageFix"/>
<feBlend mode="normal" in="SourceGraphic" in2="BackgroundImageFix" result="shape"/>
<feGaussianBlur stdDeviation="0.233333" result="effect1_foregroundBlur_4_432"/>
</filter>
<filter id="filter15_i_4_432" x="75.7535" y="29.9138" width="11.9655" height="43.3632" filterUnits="userSpaceOnUse" color-interpolation-filters="sRGB">
<feFlood flood-opacity="0" result="BackgroundImageFix"/>
<feBlend mode="normal" in="SourceGraphic" in2="BackgroundImageFix" result="shape"/>
<feColorMatrix in="SourceAlpha" type="matrix" values="0 0 0 0 0 0 0 0 0 0 0 0 0 0 0 0 0 0 127 0" result="hardAlpha"/>
<feOffset dy="7.46665"/>
<feGaussianBlur stdDeviation="10.5"/>
<feComposite in2="hardAlpha" operator="arithmetic" k2="-1" k3="1"/>
<feColorMatrix type="matrix" values="0 0 0 0 0 0 0 0 0 0 0 0 0 0 0 0 0 0 1 0"/>
<feBlend mode="normal" in2="shape" result="effect1_innerShadow_4_432"/>
</filter>
<linearGradient id="paint0_linear_4_432" x1="8.69283" y1="13.2839" x2="30.4034" y2="137.765" gradientUnits="userSpaceOnUse">
<stop stop-color="#B9BDC2"/>
<stop offset="0.9999" stop-color="#848D96"/>
</linearGradient>
<linearGradient id="paint1_linear_4_432" x1="31.2301" y1="110.322" x2="24.3745" y2="65.5317" gradientUnits="userSpaceOnUse">
<stop stop-color="#FFAA05"/>
<stop offset="1" stop-color="#FFD480"/>
</linearGradient>
<linearGradient id="paint2_linear_4_432" x1="43.7175" y1="9.84313" x2="43.7175" y2="85.8809" gradientUnits="userSpaceOnUse">
<stop stop-color="#0077FF" stop-opacity="0.998825"/>
<stop offset="1" stop-color="#00B9F9"/>
</linearGradient>
<linearGradient id="paint3_linear_4_432" x1="43.7175" y1="9.84314" x2="43.7175" y2="85.8809" gradientUnits="userSpaceOnUse">
<stop stop-color="#0077FF" stop-opacity="0.998825"/>
<stop offset="1" stop-color="#00B9F9"/>
</linearGradient>
<radialGradient id="paint4_radial_4_432" cx="0" cy="0" r="1" gradientUnits="userSpaceOnUse" gradientTransform="translate(81.7363 47.862) rotate(90) scale(25.4267)">
<stop offset="0.720183" stop-color="white"/>
<stop offset="1" stop-color="white" stop-opacity="0.9"/>
</radialGradient>
<linearGradient id="paint5_linear_4_432" x1="56.3096" y1="22.4353" x2="56.3096" y2="73.2887" gradientUnits="userSpaceOnUse">
<stop stop-opacity="0.1"/>
<stop offset="1" stop-opacity="0"/>
</linearGradient>
<radialGradient id="paint6_radial_4_432" cx="0" cy="0" r="1" gradientUnits="userSpaceOnUse" gradientTransform="translate(81.7365 47.862) rotate(90) scale(42.1132 42.1132)">
<stop offset="0.86112" stop-color="white" stop-opacity="0.75"/>
<stop offset="0.907821" stop-color="white"/>
</radialGradient>
<clipPath id="clip0_4_432">
<rect width="95.7241" height="95.7241" fill="white" transform="translate(33.8742)"/>
</clipPath>
</defs>
</svg>
